<mxfile host="app.diagrams.net" modified="2023-09-09T07:29:36.334Z" agent="Mozilla/5.0 (Windows NT 10.0; Win64; x64) AppleWebKit/537.36 (KHTML, like Gecko) Chrome/116.0.0.0 Safari/537.36 Edg/116.0.1938.69" etag="nD1zIIEyfkHG-Y1rPR4V" version="21.7.4" type="github">
  <diagram id="wFE0QG_FPsp0jaGvCLVb" name="Page-1">
    <mxGraphModel dx="880" dy="476" grid="1" gridSize="10" guides="1" tooltips="1" connect="1" arrows="1" fold="1" page="1" pageScale="1" pageWidth="850" pageHeight="1100" math="0" shadow="0">
      <root>
        <mxCell id="0" />
        <mxCell id="1" parent="0" />
        <mxCell id="lejS7yeIb2naiEsfOlTd-8" style="edgeStyle=orthogonalEdgeStyle;rounded=0;orthogonalLoop=1;jettySize=auto;html=1;exitX=1;exitY=0;exitDx=0;exitDy=0;" edge="1" parent="1" source="lejS7yeIb2naiEsfOlTd-1">
          <mxGeometry relative="1" as="geometry">
            <mxPoint x="300" y="160" as="targetPoint" />
          </mxGeometry>
        </mxCell>
        <mxCell id="lejS7yeIb2naiEsfOlTd-10" style="edgeStyle=orthogonalEdgeStyle;rounded=0;orthogonalLoop=1;jettySize=auto;html=1;exitX=0;exitY=0;exitDx=0;exitDy=0;entryX=1;entryY=0.5;entryDx=0;entryDy=0;" edge="1" parent="1" source="lejS7yeIb2naiEsfOlTd-1" target="lejS7yeIb2naiEsfOlTd-6">
          <mxGeometry relative="1" as="geometry" />
        </mxCell>
        <mxCell id="lejS7yeIb2naiEsfOlTd-12" style="edgeStyle=orthogonalEdgeStyle;rounded=0;orthogonalLoop=1;jettySize=auto;html=1;exitX=0;exitY=0.5;exitDx=0;exitDy=0;entryX=1;entryY=0.5;entryDx=0;entryDy=0;" edge="1" parent="1" source="lejS7yeIb2naiEsfOlTd-1" target="lejS7yeIb2naiEsfOlTd-4">
          <mxGeometry relative="1" as="geometry" />
        </mxCell>
        <mxCell id="lejS7yeIb2naiEsfOlTd-13" style="edgeStyle=orthogonalEdgeStyle;rounded=0;orthogonalLoop=1;jettySize=auto;html=1;exitX=0;exitY=1;exitDx=0;exitDy=0;entryX=1;entryY=0.5;entryDx=0;entryDy=0;" edge="1" parent="1" source="lejS7yeIb2naiEsfOlTd-1" target="lejS7yeIb2naiEsfOlTd-7">
          <mxGeometry relative="1" as="geometry" />
        </mxCell>
        <mxCell id="lejS7yeIb2naiEsfOlTd-1" value="Cliente" style="rounded=0;whiteSpace=wrap;html=1;" vertex="1" parent="1">
          <mxGeometry x="160" y="145" width="120" height="60" as="geometry" />
        </mxCell>
        <mxCell id="lejS7yeIb2naiEsfOlTd-2" value="Productos" style="rounded=0;whiteSpace=wrap;html=1;" vertex="1" parent="1">
          <mxGeometry x="340" y="370" width="120" height="60" as="geometry" />
        </mxCell>
        <mxCell id="lejS7yeIb2naiEsfOlTd-3" value="Pedidos" style="rounded=0;whiteSpace=wrap;html=1;" vertex="1" parent="1">
          <mxGeometry x="520" y="200" width="120" height="60" as="geometry" />
        </mxCell>
        <mxCell id="lejS7yeIb2naiEsfOlTd-4" value="Nombre" style="ellipse;whiteSpace=wrap;html=1;" vertex="1" parent="1">
          <mxGeometry x="30" y="150" width="70" height="50" as="geometry" />
        </mxCell>
        <mxCell id="lejS7yeIb2naiEsfOlTd-6" value="&lt;u&gt;ID_cliente&lt;br&gt;&lt;/u&gt;" style="ellipse;whiteSpace=wrap;html=1;" vertex="1" parent="1">
          <mxGeometry x="40" y="80" width="70" height="50" as="geometry" />
        </mxCell>
        <mxCell id="lejS7yeIb2naiEsfOlTd-7" value="Apelliido" style="ellipse;whiteSpace=wrap;html=1;" vertex="1" parent="1">
          <mxGeometry x="30" y="220" width="70" height="50" as="geometry" />
        </mxCell>
        <mxCell id="lejS7yeIb2naiEsfOlTd-14" value="Direccion" style="ellipse;whiteSpace=wrap;html=1;" vertex="1" parent="1">
          <mxGeometry x="700" y="70" width="80" height="60" as="geometry" />
        </mxCell>
        <mxCell id="lejS7yeIb2naiEsfOlTd-15" value="Producto" style="ellipse;whiteSpace=wrap;html=1;" vertex="1" parent="1">
          <mxGeometry x="610" y="70" width="80" height="60" as="geometry" />
        </mxCell>
        <mxCell id="lejS7yeIb2naiEsfOlTd-16" value="&lt;u&gt;ID_Pedido&lt;/u&gt;" style="ellipse;whiteSpace=wrap;html=1;" vertex="1" parent="1">
          <mxGeometry x="520" y="70" width="80" height="60" as="geometry" />
        </mxCell>
        <mxCell id="lejS7yeIb2naiEsfOlTd-17" value="&lt;u&gt;ID_producto&lt;/u&gt;" style="ellipse;whiteSpace=wrap;html=1;" vertex="1" parent="1">
          <mxGeometry x="280" y="270" width="80" height="50" as="geometry" />
        </mxCell>
        <mxCell id="lejS7yeIb2naiEsfOlTd-18" value="" style="ellipse;whiteSpace=wrap;html=1;" vertex="1" parent="1">
          <mxGeometry x="370" y="270" width="80" height="50" as="geometry" />
        </mxCell>
      </root>
    </mxGraphModel>
  </diagram>
</mxfile>
